<svg width="80" height="21" viewBox="0 0 80 21" fill="none" xmlns="http://www.w3.org/2000/svg">
<path d="M0.44125 4.9858V3.27273H7.81767V4.9858H5.17136V12H3.09182V4.9858H0.44125ZM10.594 12.1236C9.90653 12.1236 9.31562 11.983 8.82131 11.7017C8.32983 11.4176 7.95057 11.0227 7.68352 10.517C7.41932 10.0085 7.28722 9.41903 7.28722 8.74858C7.28722 8.07528 7.41932 7.4858 7.68352 6.98011C7.95057 6.47159 8.32983 6.0767 8.82131 5.79545C9.31562 5.51136 9.90653 5.36932 10.594 5.36932C11.2815 5.36932 11.871 5.51136 12.3625 5.79545C12.8568 6.0767 13.2361 6.47159 13.5003 6.98011C13.7673 7.4858 13.9009 8.07528 13.9009 8.74858C13.9009 9.41903 13.7673 10.0085 13.5003 10.517C13.2361 11.0227 12.8568 11.4176 12.3625 11.7017C11.871 11.983 11.2815 12.1236 10.594 12.1236ZM10.6068 10.5511C10.8568 10.5511 11.0685 10.4744 11.2418 10.321C11.4151 10.1676 11.5472 9.95455 11.6381 9.68182C11.7318 9.40909 11.7787 9.09375 11.7787 8.7358C11.7787 8.37216 11.7318 8.05398 11.6381 7.78125C11.5472 7.50852 11.4151 7.29545 11.2418 7.14205C11.0685 6.98864 10.8568 6.91193 10.6068 6.91193C10.3483 6.91193 10.1295 6.98864 9.95057 7.14205C9.77443 7.29545 9.63949 7.50852 9.54574 7.78125C9.45483 8.05398 9.40937 8.37216 9.40937 8.7358C9.40937 9.09375 9.45483 9.40909 9.54574 9.68182C9.63949 9.95455 9.77443 10.1676 9.95057 10.321C10.1295 10.4744 10.3483 10.5511 10.6068 10.5511ZM14.6083 12V3.27273H16.6921V6.57528H16.7347C16.82 6.37642 16.9407 6.18466 17.097 6C17.2561 5.81534 17.4578 5.66477 17.7021 5.5483C17.9492 5.42898 18.2447 5.36932 18.5884 5.36932C19.043 5.36932 19.4677 5.48864 19.8626 5.72727C20.2603 5.96591 20.5813 6.33381 20.8257 6.83097C21.07 7.32812 21.1921 7.96165 21.1921 8.73153C21.1921 9.47301 21.0742 10.0938 20.8384 10.5938C20.6055 11.0938 20.2901 11.4688 19.8924 11.7188C19.4975 11.9688 19.0586 12.0938 18.5757 12.0938C18.2461 12.0938 17.9606 12.0398 17.7191 11.9318C17.4776 11.8239 17.2745 11.6818 17.1097 11.5057C16.9478 11.3295 16.8228 11.1406 16.7347 10.9389H16.6708V12H14.6083ZM16.6495 8.72727C16.6495 9.07955 16.6964 9.38636 16.7901 9.64773C16.8867 9.90909 17.0245 10.1122 17.2035 10.2571C17.3853 10.3991 17.6026 10.4702 17.8555 10.4702C18.1112 10.4702 18.3285 10.3991 18.5075 10.2571C18.6864 10.1122 18.8214 9.90909 18.9123 9.64773C19.0061 9.38636 19.0529 9.07955 19.0529 8.72727C19.0529 8.375 19.0061 8.0696 18.9123 7.81108C18.8214 7.55256 18.6864 7.35227 18.5075 7.21023C18.3313 7.06818 18.114 6.99716 17.8555 6.99716C17.5998 6.99716 17.3825 7.06676 17.2035 7.20597C17.0245 7.34517 16.8867 7.54403 16.7901 7.80256C16.6964 8.06108 16.6495 8.36932 16.6495 8.72727ZM21.9241 12V5.45455H24.0079V12H21.9241ZM22.9681 4.69176C22.6755 4.69176 22.4241 4.59517 22.2139 4.40199C22.0037 4.20597 21.8985 3.97017 21.8985 3.6946C21.8985 3.42187 22.0037 3.18892 22.2139 2.99574C22.4241 2.79972 22.6755 2.7017 22.9681 2.7017C23.2636 2.7017 23.515 2.79972 23.7224 2.99574C23.9326 3.18892 24.0377 3.42187 24.0377 3.6946C24.0377 3.97017 23.9326 4.20597 23.7224 4.40199C23.515 4.59517 23.2636 4.69176 22.9681 4.69176ZM26.8194 12.1108C26.4018 12.1108 26.0311 12.0412 25.7072 11.902C25.3862 11.7599 25.1319 11.5469 24.9444 11.2628C24.7598 10.9759 24.6674 10.6165 24.6674 10.1847C24.6674 9.82102 24.7314 9.5142 24.8592 9.2642C24.987 9.0142 25.1632 8.81108 25.3876 8.65483C25.612 8.49858 25.8706 8.38068 26.1632 8.30114C26.4558 8.21875 26.7683 8.16335 27.1007 8.13494C27.4728 8.10085 27.7726 8.06534 27.9998 8.02841C28.2271 7.98864 28.3919 7.93324 28.4941 7.86222C28.5993 7.78835 28.6518 7.68466 28.6518 7.55114V7.52983C28.6518 7.31108 28.5765 7.14205 28.426 7.02273C28.2754 6.90341 28.0723 6.84375 27.8166 6.84375C27.541 6.84375 27.3194 6.90341 27.1518 7.02273C26.9842 7.14205 26.8777 7.30682 26.8322 7.51705L24.9103 7.44886C24.9672 7.05114 25.1135 6.69602 25.3493 6.38352C25.5879 6.06818 25.9146 5.82102 26.3294 5.64205C26.747 5.46023 27.2484 5.36932 27.8336 5.36932C28.2512 5.36932 28.6362 5.41903 28.9885 5.51847C29.3407 5.61506 29.6476 5.7571 29.9089 5.9446C30.1703 6.12926 30.372 6.35653 30.514 6.62642C30.6589 6.89631 30.7314 7.20455 30.7314 7.55114V12H28.7711V11.0881H28.72C28.6035 11.3097 28.4544 11.4972 28.2726 11.6506C28.0936 11.804 27.8819 11.919 27.6376 11.9957C27.3961 12.0724 27.1234 12.1108 26.8194 12.1108ZM27.4629 10.7472C27.6873 10.7472 27.889 10.7017 28.068 10.6108C28.2498 10.5199 28.3947 10.3949 28.5027 10.2358C28.6106 10.0739 28.6646 9.88636 28.6646 9.6733V9.05114C28.6049 9.08239 28.5325 9.1108 28.4473 9.13636C28.3649 9.16193 28.274 9.18608 28.1745 9.20881C28.0751 9.23153 27.9728 9.25142 27.8677 9.26847C27.7626 9.28551 27.6618 9.30114 27.5652 9.31534C27.3691 9.34659 27.2015 9.39489 27.0623 9.46023C26.926 9.52557 26.8209 9.6108 26.747 9.71591C26.676 9.81818 26.6405 9.94034 26.6405 10.0824C26.6405 10.2983 26.7172 10.4631 26.8706 10.5767C27.0268 10.6903 27.2243 10.7472 27.4629 10.7472ZM37.36 7.45312L35.4466 7.50426C35.4268 7.3679 35.3728 7.24716 35.2847 7.14205C35.1966 7.03409 35.0816 6.95028 34.9395 6.89062C34.8003 6.82812 34.6384 6.79688 34.4538 6.79688C34.2123 6.79688 34.0063 6.84517 33.8359 6.94176C33.6682 7.03835 33.5859 7.16903 33.5887 7.33381C33.5859 7.46165 33.637 7.57244 33.7421 7.66619C33.8501 7.75994 34.0418 7.83523 34.3174 7.89205L35.5788 8.13068C36.2322 8.25568 36.718 8.46307 37.0361 8.75284C37.3572 9.04261 37.5191 9.42614 37.5219 9.90341C37.5191 10.3523 37.3856 10.7429 37.1214 11.0753C36.86 11.4077 36.502 11.6662 36.0475 11.8509C35.593 12.0327 35.0731 12.1236 34.4878 12.1236C33.5532 12.1236 32.816 11.9318 32.2762 11.5483C31.7393 11.1619 31.4324 10.6449 31.3557 9.99716L33.414 9.94602C33.4594 10.1847 33.5773 10.3665 33.7677 10.4915C33.958 10.6165 34.2009 10.679 34.4964 10.679C34.7634 10.679 34.9807 10.6293 35.1484 10.5298C35.316 10.4304 35.4012 10.2983 35.404 10.1335C35.4012 9.9858 35.3359 9.8679 35.208 9.77983C35.0802 9.68892 34.8799 9.6179 34.6072 9.56676L33.4651 9.34943C32.8089 9.23011 32.3202 9.00994 31.9992 8.68892C31.6782 8.36506 31.5191 7.95312 31.5219 7.45312C31.5191 7.01562 31.6356 6.64205 31.8714 6.33239C32.1072 6.01989 32.4424 5.78125 32.877 5.61648C33.3117 5.4517 33.8245 5.36932 34.4154 5.36932C35.3018 5.36932 36.0006 5.5554 36.512 5.92756C37.0234 6.29687 37.306 6.8054 37.36 7.45312ZM40.406 12V3.27273H44.0452C44.6986 3.27273 45.2455 3.36506 45.6858 3.54972C46.129 3.73437 46.4614 3.9929 46.683 4.32528C46.9074 4.65767 47.0196 5.04261 47.0196 5.48011C47.0196 5.8125 46.95 6.10938 46.8108 6.37074C46.6716 6.62926 46.4798 6.84375 46.2355 7.0142C45.9912 7.18466 45.7085 7.30398 45.3875 7.37216V7.45739C45.7398 7.47443 46.0651 7.5696 46.3634 7.7429C46.6645 7.91619 46.906 8.15767 47.0878 8.46733C47.2696 8.77415 47.3605 9.13778 47.3605 9.55824C47.3605 10.027 47.2412 10.446 47.0026 10.8153C46.7639 11.1818 46.4188 11.4716 45.9671 11.6847C45.5154 11.8949 44.9671 12 44.3222 12H40.406ZM42.5154 10.2997H43.8193C44.2767 10.2997 44.6134 10.2131 44.8293 10.0398C45.048 9.86648 45.1574 9.625 45.1574 9.31534C45.1574 9.09091 45.1048 8.89773 44.9997 8.7358C44.8946 8.57102 44.7455 8.4446 44.5523 8.35653C44.3591 8.26562 44.1276 8.22017 43.8577 8.22017H42.5154V10.2997ZM42.5154 6.8608H43.683C43.9131 6.8608 44.1176 6.82244 44.2966 6.74574C44.4756 6.66903 44.6148 6.55824 44.7142 6.41335C44.8165 6.26847 44.8676 6.09375 44.8676 5.8892C44.8676 5.59659 44.7639 5.36648 44.5565 5.19886C44.3492 5.03125 44.0693 4.94744 43.7171 4.94744H42.5154V6.8608ZM49.8599 12.1108C49.4423 12.1108 49.0715 12.0412 48.7477 11.902C48.4267 11.7599 48.1724 11.5469 47.9849 11.2628C47.8002 10.9759 47.7079 10.6165 47.7079 10.1847C47.7079 9.82102 47.7718 9.5142 47.8997 9.2642C48.0275 9.0142 48.2036 8.81108 48.4281 8.65483C48.6525 8.49858 48.911 8.38068 49.2036 8.30114C49.4963 8.21875 49.8088 8.16335 50.1411 8.13494C50.5133 8.10085 50.813 8.06534 51.0403 8.02841C51.2676 7.98864 51.4323 7.93324 51.5346 7.86222C51.6397 7.78835 51.6923 7.68466 51.6923 7.55114V7.52983C51.6923 7.31108 51.617 7.14205 51.4664 7.02273C51.3159 6.90341 51.1127 6.84375 50.8571 6.84375C50.5815 6.84375 50.3599 6.90341 50.1923 7.02273C50.0247 7.14205 49.9181 7.30682 49.8727 7.51705L47.9508 7.44886C48.0076 7.05114 48.1539 6.69602 48.3897 6.38352C48.6284 6.06818 48.9551 5.82102 49.3698 5.64205C49.7875 5.46023 50.2889 5.36932 50.8741 5.36932C51.2917 5.36932 51.6767 5.41903 52.0289 5.51847C52.3812 5.61506 52.688 5.7571 52.9494 5.9446C53.2108 6.12926 53.4125 6.35653 53.5545 6.62642C53.6994 6.89631 53.7718 7.20455 53.7718 7.55114V12H51.8116V11.0881H51.7605C51.644 11.3097 51.4948 11.4972 51.313 11.6506C51.134 11.804 50.9224 11.919 50.6781 11.9957C50.4366 12.0724 50.1639 12.1108 49.8599 12.1108ZM50.5034 10.7472C50.7278 10.7472 50.9295 10.7017 51.1085 10.6108C51.2903 10.5199 51.4352 10.3949 51.5431 10.2358C51.6511 10.0739 51.7051 9.88636 51.7051 9.6733V9.05114C51.6454 9.08239 51.573 9.1108 51.4877 9.13636C51.4054 9.16193 51.3144 9.18608 51.215 9.20881C51.1156 9.23153 51.0133 9.25142 50.9082 9.26847C50.8031 9.28551 50.7022 9.30114 50.6056 9.31534C50.4096 9.34659 50.242 9.39489 50.1028 9.46023C49.9664 9.52557 49.8613 9.6108 49.7875 9.71591C49.7164 9.81818 49.6809 9.94034 49.6809 10.0824C49.6809 10.2983 49.7576 10.4631 49.911 10.5767C50.0673 10.6903 50.2647 10.7472 50.5034 10.7472ZM56.5311 12.1108C56.1135 12.1108 55.7428 12.0412 55.4189 11.902C55.0979 11.7599 54.8436 11.5469 54.6561 11.2628C54.4715 10.9759 54.3792 10.6165 54.3792 10.1847C54.3792 9.82102 54.4431 9.5142 54.5709 9.2642C54.6988 9.0142 54.8749 8.81108 55.0993 8.65483C55.3238 8.49858 55.5823 8.38068 55.8749 8.30114C56.1675 8.21875 56.48 8.16335 56.8124 8.13494C57.1846 8.10085 57.4843 8.06534 57.7115 8.02841C57.9388 7.98864 58.1036 7.93324 58.2059 7.86222C58.311 7.78835 58.3635 7.68466 58.3635 7.55114V7.52983C58.3635 7.31108 58.2883 7.14205 58.1377 7.02273C57.9871 6.90341 57.784 6.84375 57.5283 6.84375C57.2527 6.84375 57.0311 6.90341 56.8635 7.02273C56.6959 7.14205 56.5894 7.30682 56.5439 7.51705L54.6221 7.44886C54.6789 7.05114 54.8252 6.69602 55.061 6.38352C55.2996 6.06818 55.6263 5.82102 56.0411 5.64205C56.4587 5.46023 56.9601 5.36932 57.5454 5.36932C57.963 5.36932 58.3479 5.41903 58.7002 5.51847C59.0525 5.61506 59.3593 5.7571 59.6206 5.9446C59.882 6.12926 60.0837 6.35653 60.2258 6.62642C60.3706 6.89631 60.4431 7.20455 60.4431 7.55114V12H58.4829V11.0881H58.4317C58.3152 11.3097 58.1661 11.4972 57.9843 11.6506C57.8053 11.804 57.5936 11.919 57.3493 11.9957C57.1079 12.0724 56.8351 12.1108 56.5311 12.1108ZM57.1746 10.7472C57.399 10.7472 57.6008 10.7017 57.7797 10.6108C57.9615 10.5199 58.1064 10.3949 58.2144 10.2358C58.3223 10.0739 58.3763 9.88636 58.3763 9.6733V9.05114C58.3167 9.08239 58.2442 9.1108 58.159 9.13636C58.0766 9.16193 57.9857 9.18608 57.8863 9.20881C57.7868 9.23153 57.6846 9.25142 57.5794 9.26847C57.4743 9.28551 57.3735 9.30114 57.2769 9.31534C57.0809 9.34659 56.9133 9.39489 56.774 9.46023C56.6377 9.52557 56.5326 9.6108 56.4587 9.71591C56.3877 9.81818 56.3522 9.94034 56.3522 10.0824C56.3522 10.2983 56.4289 10.4631 56.5823 10.5767C56.7385 10.6903 56.936 10.7472 57.1746 10.7472ZM63.7479 12.0938C63.2649 12.0938 62.826 11.9688 62.4311 11.7188C62.0362 11.4688 61.7209 11.0938 61.4851 10.5938C61.2493 10.0938 61.1314 9.47301 61.1314 8.73153C61.1314 7.96165 61.2535 7.32812 61.4979 6.83097C61.7422 6.33381 62.0618 5.96591 62.4567 5.72727C62.8544 5.48864 63.2819 5.36932 63.7393 5.36932C64.0831 5.36932 64.3771 5.42898 64.6214 5.5483C64.8658 5.66477 65.0675 5.81534 65.2265 6C65.3856 6.18466 65.5064 6.37642 65.5888 6.57528H65.6314V3.27273H67.7152V12H65.6527V10.9389H65.5888C65.5007 11.1406 65.3757 11.3295 65.2138 11.5057C65.0518 11.6818 64.8487 11.8239 64.6044 11.9318C64.3629 12.0398 64.0774 12.0938 63.7479 12.0938ZM64.4723 10.4702C64.7251 10.4702 64.941 10.3991 65.12 10.2571C65.299 10.1122 65.4368 9.90909 65.5334 9.64773C65.63 9.38636 65.6783 9.07955 65.6783 8.72727C65.6783 8.36932 65.63 8.06108 65.5334 7.80256C65.4396 7.54403 65.3018 7.34517 65.12 7.20597C64.941 7.06676 64.7251 6.99716 64.4723 6.99716C64.2138 6.99716 63.995 7.06818 63.816 7.21023C63.6371 7.35227 63.5007 7.55256 63.4069 7.81108C63.316 8.0696 63.2706 8.375 63.2706 8.72727C63.2706 9.07955 63.3175 9.38636 63.4112 9.64773C63.505 9.90909 63.6399 10.1122 63.816 10.2571C63.995 10.3991 64.2138 10.4702 64.4723 10.4702ZM71.7327 12.1236C71.048 12.1236 70.4571 11.9886 69.9599 11.7188C69.4656 11.446 69.0849 11.0582 68.8179 10.5554C68.5537 10.0497 68.4216 9.44886 68.4216 8.75284C68.4216 8.0767 68.5551 7.4858 68.8222 6.98011C69.0892 6.47159 69.4656 6.0767 69.9514 5.79545C70.4372 5.51136 71.0097 5.36932 71.6687 5.36932C72.1347 5.36932 72.5608 5.44176 72.9472 5.58665C73.3335 5.73153 73.6673 5.94602 73.9486 6.23011C74.2298 6.5142 74.4486 6.86506 74.6048 7.28267C74.7611 7.69744 74.8392 8.1733 74.8392 8.71023V9.23011H69.1503V8.01989H72.9003C72.8974 7.7983 72.8449 7.60085 72.7426 7.42756C72.6403 7.25426 72.4997 7.11932 72.3207 7.02273C72.1446 6.9233 71.9415 6.87358 71.7114 6.87358C71.4784 6.87358 71.2696 6.92614 71.0849 7.03125C70.9003 7.13352 70.754 7.27415 70.646 7.45312C70.5381 7.62926 70.4812 7.82955 70.4756 8.05398V9.28551C70.4756 9.55256 70.5281 9.78693 70.6332 9.98864C70.7383 10.1875 70.8875 10.3423 71.0807 10.4531C71.2739 10.5639 71.504 10.6193 71.771 10.6193C71.9557 10.6193 72.1233 10.5937 72.2739 10.5426C72.4244 10.4915 72.5537 10.4162 72.6616 10.3168C72.7696 10.2173 72.8506 10.0952 72.9045 9.95028L74.8179 10.0057C74.7383 10.4347 74.5636 10.8082 74.2937 11.1264C74.0267 11.4418 73.6758 11.6875 73.2412 11.8636C72.8065 12.0369 72.3037 12.1236 71.7327 12.1236ZM75.5435 12V5.45455H77.5676V6.64773H77.6358C77.7551 6.21591 77.9497 5.89489 78.2196 5.68466C78.4895 5.47159 78.8034 5.36506 79.1614 5.36506C79.258 5.36506 79.3574 5.37216 79.4597 5.38636C79.5619 5.39773 79.6571 5.41619 79.7452 5.44176V7.25284C79.6457 7.21875 79.5151 7.19176 79.3531 7.17188C79.194 7.15199 79.052 7.14205 78.927 7.14205C78.6798 7.14205 78.4568 7.19744 78.258 7.30824C78.0619 7.41619 77.9071 7.56818 77.7935 7.7642C77.6827 7.95739 77.6273 8.18466 77.6273 8.44602V12H75.5435ZM2.66673 19.0682C2.35991 19.0682 2.0957 18.9957 1.87411 18.8509C1.65252 18.706 1.48207 18.5064 1.36275 18.2521C1.24343 17.9979 1.18377 17.7074 1.18377 17.3807C1.18377 17.0483 1.24485 16.755 1.36701 16.5007C1.49059 16.245 1.66246 16.0455 1.88263 15.902C2.10423 15.7571 2.36275 15.6847 2.6582 15.6847C2.88832 15.6847 3.0957 15.7273 3.28036 15.8125C3.46502 15.8977 3.6163 16.017 3.7342 16.1705C3.8521 16.3239 3.92525 16.5028 3.95366 16.7074H3.45082C3.41246 16.5582 3.32724 16.4261 3.19514 16.3111C3.06445 16.1946 2.88832 16.1364 2.66673 16.1364C2.4707 16.1364 2.29883 16.1875 2.1511 16.2898C2.00479 16.3906 1.89045 16.5334 1.80806 16.718C1.7271 16.9013 1.68661 17.1165 1.68661 17.3636C1.68661 17.6165 1.72638 17.8366 1.80593 18.0241C1.8869 18.2116 2.00053 18.3572 2.14684 18.4609C2.29457 18.5646 2.46786 18.6165 2.66673 18.6165C2.79741 18.6165 2.91602 18.5938 3.02255 18.5483C3.12908 18.5028 3.21928 18.4375 3.29315 18.3523C3.36701 18.267 3.41957 18.1648 3.45082 18.0455H3.95366C3.92525 18.2386 3.85494 18.4126 3.74272 18.5675C3.63192 18.7209 3.48491 18.843 3.30167 18.9339C3.11985 19.0234 2.9082 19.0682 2.66673 19.0682ZM4.80874 19V15.7273H5.29454V16.2216H5.32863C5.38829 16.0597 5.49624 15.9283 5.65249 15.8274C5.80874 15.7266 5.98488 15.6761 6.1809 15.6761C6.21783 15.6761 6.264 15.6768 6.3194 15.6783C6.37479 15.6797 6.4167 15.6818 6.44511 15.6847V16.196C6.42806 16.1918 6.389 16.1854 6.32792 16.1768C6.26826 16.1669 6.20505 16.1619 6.13829 16.1619C5.9792 16.1619 5.83715 16.1953 5.71215 16.2621C5.58857 16.3274 5.49056 16.4183 5.41812 16.5348C5.3471 16.6499 5.31158 16.7812 5.31158 16.929V19H4.80874ZM8.43371 19.0682C8.11837 19.0682 7.84636 18.9986 7.61766 18.8594C7.39039 18.7188 7.21496 18.5227 7.09138 18.2713C6.96923 18.0185 6.90815 17.7244 6.90815 17.3892C6.90815 17.054 6.96923 16.7585 7.09138 16.5028C7.21496 16.2457 7.38684 16.0455 7.60701 15.902C7.8286 15.7571 8.08712 15.6847 8.38258 15.6847C8.55303 15.6847 8.72136 15.7131 8.88755 15.7699C9.05374 15.8267 9.20502 15.919 9.34138 16.0469C9.47775 16.1733 9.58641 16.3409 9.66738 16.5497C9.74835 16.7585 9.78883 17.0156 9.78883 17.321V17.5341H7.2661V17.0994H9.27746C9.27746 16.9148 9.24053 16.75 9.16667 16.6051C9.09423 16.4602 8.99053 16.3459 8.85559 16.2621C8.72207 16.1783 8.5644 16.1364 8.38258 16.1364C8.18229 16.1364 8.009 16.1861 7.86269 16.2855C7.71781 16.3835 7.6063 16.5114 7.52817 16.669C7.45005 16.8267 7.41099 16.9957 7.41099 17.1761V17.4659C7.41099 17.7131 7.4536 17.9226 7.53883 18.0945C7.62548 18.2649 7.7455 18.3949 7.89891 18.4844C8.05232 18.5724 8.23059 18.6165 8.43371 18.6165C8.56582 18.6165 8.68513 18.598 8.79167 18.5611C8.89962 18.5227 8.99266 18.4659 9.07079 18.3906C9.14891 18.3139 9.20928 18.2187 9.2519 18.1051L9.73769 18.2415C9.68656 18.4062 9.60062 18.5511 9.47988 18.6761C9.35914 18.7997 9.20999 18.8963 9.03244 18.9659C8.85488 19.0341 8.65531 19.0682 8.43371 19.0682ZM11.6368 19.0767C11.4294 19.0767 11.2412 19.0376 11.0722 18.9595C10.9031 18.88 10.7689 18.7656 10.6695 18.6165C10.57 18.4659 10.5203 18.2841 10.5203 18.071C10.5203 17.8835 10.5573 17.7315 10.6311 17.6151C10.705 17.4972 10.8037 17.4048 10.9273 17.3381C11.0509 17.2713 11.1872 17.2216 11.3364 17.1889C11.487 17.1548 11.6382 17.1278 11.7902 17.108C11.9891 17.0824 12.1503 17.0632 12.2739 17.0504C12.3989 17.0362 12.4898 17.0128 12.5466 16.9801C12.6049 16.9474 12.634 16.8906 12.634 16.8097V16.7926C12.634 16.5824 12.5764 16.419 12.4614 16.3026C12.3477 16.1861 12.1752 16.1278 11.9436 16.1278C11.7036 16.1278 11.5154 16.1804 11.379 16.2855C11.2426 16.3906 11.1468 16.5028 11.0914 16.6222L10.6141 16.4517C10.6993 16.2528 10.8129 16.098 10.955 15.9872C11.0985 15.875 11.2547 15.7969 11.4237 15.7528C11.5942 15.7074 11.7618 15.6847 11.9266 15.6847C12.0317 15.6847 12.1524 15.6974 12.2888 15.723C12.4266 15.7472 12.5594 15.7976 12.6872 15.8743C12.8165 15.951 12.9237 16.0668 13.009 16.2216C13.0942 16.3764 13.1368 16.5838 13.1368 16.8438V19H12.634V18.5568H12.6084C12.5743 18.6278 12.5175 18.7038 12.4379 18.7848C12.3584 18.8658 12.2526 18.9347 12.1205 18.9915C11.9884 19.0483 11.8272 19.0767 11.6368 19.0767ZM11.7135 18.625C11.9124 18.625 12.08 18.5859 12.2164 18.5078C12.3541 18.4297 12.4578 18.3288 12.5274 18.2053C12.5985 18.0817 12.634 17.9517 12.634 17.8153V17.3551C12.6127 17.3807 12.5658 17.4041 12.4933 17.4254C12.4223 17.4453 12.3399 17.4631 12.2462 17.4787C12.1539 17.4929 12.0637 17.5057 11.9756 17.517C11.8889 17.527 11.8186 17.5355 11.7647 17.5426C11.634 17.5597 11.5118 17.5874 11.3982 17.6257C11.286 17.6626 11.195 17.7187 11.1254 17.794C11.0573 17.8679 11.0232 17.9687 11.0232 18.0966C11.0232 18.2713 11.0878 18.4034 11.2171 18.4929C11.3477 18.581 11.5132 18.625 11.7135 18.625ZM15.5979 15.7273V16.1534H13.9019V15.7273H15.5979ZM14.3962 14.9432H14.899V18.0625C14.899 18.2045 14.9196 18.3111 14.9608 18.3821C15.0034 18.4517 15.0574 18.4986 15.1228 18.5227C15.1895 18.5455 15.2598 18.5568 15.3337 18.5568C15.3891 18.5568 15.4345 18.554 15.4701 18.5483C15.5056 18.5412 15.534 18.5355 15.5553 18.5312L15.6576 18.983C15.6235 18.9957 15.5759 19.0085 15.5148 19.0213C15.4537 19.0355 15.3763 19.0426 15.2826 19.0426C15.1405 19.0426 15.0013 19.0121 14.8649 18.951C14.73 18.8899 14.6178 18.7969 14.5283 18.6719C14.4402 18.5469 14.3962 18.3892 14.3962 18.1989V14.9432ZM16.4743 19V15.7273H16.9771V19H16.4743ZM16.73 15.1818C16.632 15.1818 16.5474 15.1484 16.4764 15.0817C16.4068 15.0149 16.372 14.9347 16.372 14.8409C16.372 14.7472 16.4068 14.6669 16.4764 14.6001C16.5474 14.5334 16.632 14.5 16.73 14.5C16.828 14.5 16.9118 14.5334 16.9814 14.6001C17.0524 14.6669 17.0879 14.7472 17.0879 14.8409C17.0879 14.9347 17.0524 15.0149 16.9814 15.0817C16.9118 15.1484 16.828 15.1818 16.73 15.1818ZM18.521 17.0312V19H18.0181V15.7273H18.5039V16.2386H18.5465C18.6232 16.0724 18.7397 15.9389 18.896 15.8381C19.0522 15.7358 19.2539 15.6847 19.5011 15.6847C19.7227 15.6847 19.9166 15.7301 20.0827 15.821C20.2489 15.9105 20.3782 16.0469 20.4705 16.2301C20.5629 16.4119 20.609 16.642 20.609 16.9205V19H20.1062V16.9545C20.1062 16.6974 20.0394 16.4972 19.9059 16.3537C19.7724 16.2088 19.5891 16.1364 19.3562 16.1364C19.1957 16.1364 19.0522 16.1712 18.9258 16.2408C18.8008 16.3104 18.7021 16.4119 18.6296 16.5455C18.5572 16.679 18.521 16.8409 18.521 17.0312ZM22.9689 20.2955C22.726 20.2955 22.5172 20.2642 22.3425 20.2017C22.1678 20.1406 22.0222 20.0597 21.9057 19.9588C21.7906 19.8594 21.699 19.7528 21.6308 19.6392L22.0314 19.358C22.0769 19.4176 22.1344 19.4858 22.204 19.5625C22.2736 19.6406 22.3688 19.7081 22.4895 19.7649C22.6117 19.8232 22.7715 19.8523 22.9689 19.8523C23.2331 19.8523 23.4512 19.7884 23.623 19.6605C23.7949 19.5327 23.8808 19.3324 23.8808 19.0597V18.3949H23.8382C23.8013 18.4545 23.7487 18.5284 23.6806 18.6165C23.6138 18.7031 23.5172 18.7805 23.3908 18.8487C23.2658 18.9155 23.0967 18.9489 22.8837 18.9489C22.6195 18.9489 22.3823 18.8864 22.172 18.7614C21.9632 18.6364 21.7977 18.4545 21.6756 18.2159C21.5548 17.9773 21.4945 17.6875 21.4945 17.3466C21.4945 17.0114 21.5534 16.7195 21.6713 16.4709C21.7892 16.2209 21.9533 16.0277 22.1635 15.8913C22.3737 15.7536 22.6166 15.6847 22.8922 15.6847C23.1053 15.6847 23.2743 15.7202 23.3993 15.7912C23.5257 15.8608 23.6223 15.9403 23.6891 16.0298C23.7573 16.1179 23.8098 16.1903 23.8467 16.2472H23.8979V15.7273H24.3837V19.0938C24.3837 19.375 24.3198 19.6037 24.1919 19.7798C24.0655 19.9574 23.895 20.0874 23.6806 20.1697C23.4675 20.2536 23.2303 20.2955 22.9689 20.2955ZM22.9519 18.4972C23.1536 18.4972 23.324 18.451 23.4632 18.3587C23.6024 18.2663 23.7083 18.1335 23.7807 17.9602C23.8531 17.7869 23.8894 17.5795 23.8894 17.3381C23.8894 17.1023 23.8538 16.8942 23.7828 16.7138C23.7118 16.5334 23.6067 16.392 23.4675 16.2898C23.3283 16.1875 23.1564 16.1364 22.9519 16.1364C22.7388 16.1364 22.5612 16.1903 22.4192 16.2983C22.2786 16.4062 22.1727 16.5511 22.1017 16.733C22.0321 16.9148 21.9973 17.1165 21.9973 17.3381C21.9973 17.5653 22.0328 17.7663 22.1038 17.9411C22.1763 18.1143 22.2828 18.2507 22.4235 18.3501C22.5655 18.4482 22.7416 18.4972 22.9519 18.4972ZM29.9078 15.7273L28.6975 19H28.1862L26.976 15.7273H27.5214L28.4248 18.3352H28.4589L29.3623 15.7273H29.9078ZM31.5549 19.0767C31.3476 19.0767 31.1593 19.0376 30.9903 18.9595C30.8213 18.88 30.687 18.7656 30.5876 18.6165C30.4882 18.4659 30.4385 18.2841 30.4385 18.071C30.4385 17.8835 30.4754 17.7315 30.5493 17.6151C30.6231 17.4972 30.7218 17.4048 30.8454 17.3381C30.969 17.2713 31.1054 17.2216 31.2545 17.1889C31.4051 17.1548 31.5564 17.1278 31.7083 17.108C31.9072 17.0824 32.0684 17.0632 32.192 17.0504C32.317 17.0362 32.4079 17.0128 32.4647 16.9801C32.523 16.9474 32.5521 16.8906 32.5521 16.8097V16.7926C32.5521 16.5824 32.4946 16.419 32.3795 16.3026C32.2659 16.1861 32.0933 16.1278 31.8618 16.1278C31.6217 16.1278 31.4335 16.1804 31.2971 16.2855C31.1608 16.3906 31.0649 16.5028 31.0095 16.6222L30.5322 16.4517C30.6174 16.2528 30.7311 16.098 30.8731 15.9872C31.0166 15.875 31.1728 15.7969 31.3419 15.7528C31.5123 15.7074 31.6799 15.6847 31.8447 15.6847C31.9498 15.6847 32.0706 15.6974 32.2069 15.723C32.3447 15.7472 32.4775 15.7976 32.6054 15.8743C32.7346 15.951 32.8419 16.0668 32.9271 16.2216C33.0123 16.3764 33.0549 16.5838 33.0549 16.8438V19H32.5521V18.5568H32.5265C32.4924 18.6278 32.4356 18.7038 32.3561 18.7848C32.2765 18.8658 32.1707 18.9347 32.0386 18.9915C31.9065 19.0483 31.7453 19.0767 31.5549 19.0767ZM31.6316 18.625C31.8305 18.625 31.9981 18.5859 32.1345 18.5078C32.2723 18.4297 32.376 18.3288 32.4456 18.2053C32.5166 18.0817 32.5521 17.9517 32.5521 17.8153V17.3551C32.5308 17.3807 32.4839 17.4041 32.4115 17.4254C32.3404 17.4453 32.2581 17.4631 32.1643 17.4787C32.072 17.4929 31.9818 17.5057 31.8937 17.517C31.8071 17.527 31.7368 17.5355 31.6828 17.5426C31.5521 17.5597 31.4299 17.5874 31.3163 17.6257C31.2041 17.6626 31.1132 17.7187 31.0436 17.794C30.9754 17.8679 30.9413 17.9687 30.9413 18.0966C30.9413 18.2713 31.0059 18.4034 31.1352 18.4929C31.2659 18.581 31.4314 18.625 31.6316 18.625ZM34.5956 14.6364V19H34.0927V14.6364H34.5956ZM37.6991 17.6619V15.7273H38.2019V19H37.6991V18.446H37.665C37.5883 18.6122 37.4689 18.7536 37.307 18.87C37.1451 18.9851 36.9405 19.0426 36.6934 19.0426C36.4888 19.0426 36.307 18.9979 36.1479 18.9084C35.9888 18.8175 35.8638 18.6811 35.7729 18.4993C35.682 18.3161 35.6366 18.0852 35.6366 17.8068V15.7273H36.1394V17.7727C36.1394 18.0114 36.2062 18.2017 36.3397 18.3438C36.4746 18.4858 36.6465 18.5568 36.8553 18.5568C36.9803 18.5568 37.1074 18.5249 37.2367 18.4609C37.3674 18.397 37.4768 18.299 37.5648 18.1669C37.6543 18.0348 37.6991 17.8665 37.6991 17.6619ZM40.206 19.0767C39.9986 19.0767 39.8104 19.0376 39.6413 18.9595C39.4723 18.88 39.3381 18.7656 39.2386 18.6165C39.1392 18.4659 39.0895 18.2841 39.0895 18.071C39.0895 17.8835 39.1264 17.7315 39.2003 17.6151C39.2741 17.4972 39.3729 17.4048 39.4964 17.3381C39.62 17.2713 39.7564 17.2216 39.9055 17.1889C40.0561 17.1548 40.2074 17.1278 40.3594 17.108C40.5582 17.0824 40.7194 17.0632 40.843 17.0504C40.968 17.0362 41.0589 17.0128 41.1158 16.9801C41.174 16.9474 41.2031 16.8906 41.2031 16.8097V16.7926C41.2031 16.5824 41.1456 16.419 41.0305 16.3026C40.9169 16.1861 40.7443 16.1278 40.5128 16.1278C40.2727 16.1278 40.0845 16.1804 39.9481 16.2855C39.8118 16.3906 39.7159 16.5028 39.6605 16.6222L39.1832 16.4517C39.2685 16.2528 39.3821 16.098 39.5241 15.9872C39.6676 15.875 39.8239 15.7969 39.9929 15.7528C40.1633 15.7074 40.331 15.6847 40.4957 15.6847C40.6008 15.6847 40.7216 15.6974 40.8579 15.723C40.9957 15.7472 41.1285 15.7976 41.2564 15.8743C41.3856 15.951 41.4929 16.0668 41.5781 16.2216C41.6633 16.3764 41.706 16.5838 41.706 16.8438V19H41.2031V18.5568H41.1775C41.1435 18.6278 41.0866 18.7038 41.0071 18.7848C40.9275 18.8658 40.8217 18.9347 40.6896 18.9915C40.5575 19.0483 40.3963 19.0767 40.206 19.0767ZM40.2827 18.625C40.4815 18.625 40.6491 18.5859 40.7855 18.5078C40.9233 18.4297 41.027 18.3288 41.0966 18.2053C41.1676 18.0817 41.2031 17.9517 41.2031 17.8153V17.3551C41.1818 17.3807 41.1349 17.4041 41.0625 17.4254C40.9915 17.4453 40.9091 17.4631 40.8153 17.4787C40.723 17.4929 40.6328 17.5057 40.5447 17.517C40.4581 17.527 40.3878 17.5355 40.3338 17.5426C40.2031 17.5597 40.081 17.5874 39.9673 17.6257C39.8551 17.6626 39.7642 17.7187 39.6946 17.794C39.6264 17.8679 39.5923 17.9687 39.5923 18.0966C39.5923 18.2713 39.6569 18.4034 39.7862 18.4929C39.9169 18.581 40.0824 18.625 40.2827 18.625ZM42.8119 19V14.6364H43.3148V16.2472H43.3574C43.3943 16.1903 43.4454 16.1179 43.5108 16.0298C43.5776 15.9403 43.6727 15.8608 43.7963 15.7912C43.9213 15.7202 44.0903 15.6847 44.3034 15.6847C44.579 15.6847 44.8219 15.7536 45.0321 15.8913C45.2423 16.0291 45.4064 16.2244 45.5243 16.4773C45.6422 16.7301 45.7011 17.0284 45.7011 17.3722C45.7011 17.7188 45.6422 18.0192 45.5243 18.2734C45.4064 18.5263 45.243 18.7223 45.0342 18.8615C44.8254 18.9993 44.5847 19.0682 44.3119 19.0682C44.1017 19.0682 43.9334 19.0334 43.807 18.9638C43.6805 18.8928 43.5832 18.8125 43.5151 18.723C43.4469 18.6321 43.3943 18.5568 43.3574 18.4972H43.2977V19H42.8119ZM43.3062 17.3636C43.3062 17.6108 43.3425 17.8288 43.4149 18.0178C43.4874 18.2053 43.5932 18.3523 43.7324 18.4588C43.8716 18.5639 44.042 18.6165 44.2437 18.6165C44.454 18.6165 44.6294 18.5611 44.77 18.4503C44.9121 18.3381 45.0186 18.1875 45.0896 17.9986C45.1621 17.8082 45.1983 17.5966 45.1983 17.3636C45.1983 17.1335 45.1628 16.9261 45.0918 16.7415C45.0222 16.5554 44.9163 16.4084 44.7743 16.3004C44.6337 16.1911 44.4568 16.1364 44.2437 16.1364C44.0392 16.1364 43.8673 16.1882 43.7281 16.2919C43.5889 16.3942 43.4838 16.5376 43.4128 16.7223C43.3418 16.9055 43.3062 17.1193 43.3062 17.3636ZM47.0931 14.6364V19H46.5903V14.6364H47.0931ZM49.5063 19.0682C49.1909 19.0682 48.9189 18.9986 48.6902 18.8594C48.463 18.7188 48.2875 18.5227 48.164 18.2713C48.0418 18.0185 47.9807 17.7244 47.9807 17.3892C47.9807 17.054 48.0418 16.7585 48.164 16.5028C48.2875 16.2457 48.4594 16.0455 48.6796 15.902C48.9012 15.7571 49.1597 15.6847 49.4552 15.6847C49.6256 15.6847 49.7939 15.7131 49.9601 15.7699C50.1263 15.8267 50.2776 15.919 50.414 16.0469C50.5503 16.1733 50.659 16.3409 50.74 16.5497C50.8209 16.7585 50.8614 17.0156 50.8614 17.321V17.5341H48.3387V17.0994H50.35C50.35 16.9148 50.3131 16.75 50.2392 16.6051C50.1668 16.4602 50.0631 16.3459 49.9282 16.2621C49.7946 16.1783 49.637 16.1364 49.4552 16.1364C49.2549 16.1364 49.0816 16.1861 48.9353 16.2855C48.7904 16.3835 48.6789 16.5114 48.6008 16.669C48.5226 16.8267 48.4836 16.9957 48.4836 17.1761V17.4659C48.4836 17.7131 48.5262 17.9226 48.6114 18.0945C48.6981 18.2649 48.8181 18.3949 48.9715 18.4844C49.1249 18.5724 49.3032 18.6165 49.5063 18.6165C49.6384 18.6165 49.7577 18.598 49.8642 18.5611C49.9722 18.5227 50.0652 18.4659 50.1434 18.3906C50.2215 18.3139 50.2819 18.2187 50.3245 18.1051L50.8103 18.2415C50.7591 18.4062 50.6732 18.5511 50.5525 18.6761C50.4317 18.7997 50.2826 18.8963 50.105 18.9659C49.9275 19.0341 49.7279 19.0682 49.5063 19.0682ZM53.5538 20.2273V15.7273H54.0396V16.2472H54.0993C54.1362 16.1903 54.1873 16.1179 54.2527 16.0298C54.3194 15.9403 54.4146 15.8608 54.5382 15.7912C54.6632 15.7202 54.8322 15.6847 55.0453 15.6847C55.3209 15.6847 55.5638 15.7536 55.774 15.8913C55.9842 16.0291 56.1483 16.2244 56.2662 16.4773C56.3841 16.7301 56.443 17.0284 56.443 17.3722C56.443 17.7188 56.3841 18.0192 56.2662 18.2734C56.1483 18.5263 55.9849 18.7223 55.7761 18.8615C55.5673 18.9993 55.3265 19.0682 55.0538 19.0682C54.8436 19.0682 54.6753 19.0334 54.5488 18.9638C54.4224 18.8928 54.3251 18.8125 54.2569 18.723C54.1888 18.6321 54.1362 18.5568 54.0993 18.4972H54.0567V20.2273H53.5538ZM54.0481 17.3636C54.0481 17.6108 54.0844 17.8288 54.1568 18.0178C54.2292 18.2053 54.3351 18.3523 54.4743 18.4588C54.6135 18.5639 54.7839 18.6165 54.9856 18.6165C55.1959 18.6165 55.3713 18.5611 55.5119 18.4503C55.654 18.3381 55.7605 18.1875 55.8315 17.9986C55.904 17.8082 55.9402 17.5966 55.9402 17.3636C55.9402 17.1335 55.9047 16.9261 55.8337 16.7415C55.764 16.5554 55.6582 16.4084 55.5162 16.3004C55.3756 16.1911 55.1987 16.1364 54.9856 16.1364C54.7811 16.1364 54.6092 16.1882 54.47 16.2919C54.3308 16.3942 54.2257 16.5376 54.1547 16.7223C54.0837 16.9055 54.0481 17.1193 54.0481 17.3636ZM57.3301 19V15.7273H57.8159V16.2216H57.85C57.9096 16.0597 58.0176 15.9283 58.1738 15.8274C58.3301 15.7266 58.5062 15.6761 58.7022 15.6761C58.7392 15.6761 58.7853 15.6768 58.8407 15.6783C58.8961 15.6797 58.938 15.6818 58.9664 15.6847V16.196C58.9494 16.1918 58.9103 16.1854 58.8492 16.1768C58.7896 16.1669 58.7264 16.1619 58.6596 16.1619C58.5005 16.1619 58.3585 16.1953 58.2335 16.2621C58.1099 16.3274 58.0119 16.4183 57.9394 16.5348C57.8684 16.6499 57.8329 16.7812 57.8329 16.929V19H57.3301ZM60.9124 19.0682C60.617 19.0682 60.3577 18.9979 60.1347 18.8572C59.9131 18.7166 59.7398 18.5199 59.6148 18.267C59.4913 18.0142 59.4295 17.7187 59.4295 17.3807C59.4295 17.0398 59.4913 16.7422 59.6148 16.4879C59.7398 16.2337 59.9131 16.0362 60.1347 15.8956C60.3577 15.755 60.617 15.6847 60.9124 15.6847C61.2079 15.6847 61.4664 15.755 61.688 15.8956C61.911 16.0362 62.0843 16.2337 62.2079 16.4879C62.3329 16.7422 62.3954 17.0398 62.3954 17.3807C62.3954 17.7187 62.3329 18.0142 62.2079 18.267C62.0843 18.5199 61.911 18.7166 61.688 18.8572C61.4664 18.9979 61.2079 19.0682 60.9124 19.0682ZM60.9124 18.6165C61.1369 18.6165 61.3215 18.5589 61.4664 18.4439C61.6113 18.3288 61.7185 18.1776 61.7881 17.9901C61.8577 17.8026 61.8925 17.5994 61.8925 17.3807C61.8925 17.1619 61.8577 16.9581 61.7881 16.7692C61.7185 16.5803 61.6113 16.4276 61.4664 16.3111C61.3215 16.1946 61.1369 16.1364 60.9124 16.1364C60.688 16.1364 60.5033 16.1946 60.3585 16.3111C60.2136 16.4276 60.1063 16.5803 60.0367 16.7692C59.9671 16.9581 59.9323 17.1619 59.9323 17.3807C59.9323 17.5994 59.9671 17.8026 60.0367 17.9901C60.1063 18.1776 60.2136 18.3288 60.3585 18.4439C60.5033 18.5589 60.688 18.6165 60.9124 18.6165ZM64.5188 19.0682C64.246 19.0682 64.0053 18.9993 63.7965 18.8615C63.5876 18.7223 63.4243 18.5263 63.3064 18.2734C63.1885 18.0192 63.1296 17.7188 63.1296 17.3722C63.1296 17.0284 63.1885 16.7301 63.3064 16.4773C63.4243 16.2244 63.5884 16.0291 63.7986 15.8913C64.0088 15.7536 64.2517 15.6847 64.5273 15.6847C64.7403 15.6847 64.9087 15.7202 65.0323 15.7912C65.1573 15.8608 65.2524 15.9403 65.3178 16.0298C65.3845 16.1179 65.4364 16.1903 65.4733 16.2472H65.5159V14.6364H66.0188V19H65.533V18.4972H65.4733C65.4364 18.5568 65.3838 18.6321 65.3156 18.723C65.2475 18.8125 65.1501 18.8928 65.0237 18.9638C64.8973 19.0334 64.729 19.0682 64.5188 19.0682ZM64.5869 18.6165C64.7886 18.6165 64.9591 18.5639 65.0983 18.4588C65.2375 18.3523 65.3433 18.2053 65.4158 18.0178C65.4882 17.8288 65.5244 17.6108 65.5244 17.3636C65.5244 17.1193 65.4889 16.9055 65.4179 16.7223C65.3469 16.5376 65.2418 16.3942 65.1026 16.2919C64.9634 16.1882 64.7915 16.1364 64.5869 16.1364C64.3739 16.1364 64.1963 16.1911 64.0543 16.3004C63.9136 16.4084 63.8078 16.5554 63.7368 16.7415C63.6672 16.9261 63.6324 17.1335 63.6324 17.3636C63.6324 17.5966 63.6679 17.8082 63.7389 17.9986C63.8114 18.1875 63.9179 18.3381 64.0585 18.4503C64.2006 18.5611 64.3767 18.6165 64.5869 18.6165ZM69.192 17.6619V15.7273H69.6949V19H69.192V18.446H69.1579C69.0812 18.6122 68.9619 18.7536 68.8 18.87C68.638 18.9851 68.4335 19.0426 68.1863 19.0426C67.9818 19.0426 67.8 18.9979 67.6409 18.9084C67.4818 18.8175 67.3568 18.6811 67.2659 18.4993C67.175 18.3161 67.1295 18.0852 67.1295 17.8068V15.7273H67.6324V17.7727C67.6324 18.0114 67.6991 18.2017 67.8326 18.3438C67.9676 18.4858 68.1395 18.5568 68.3483 18.5568C68.4733 18.5568 68.6004 18.5249 68.7297 18.4609C68.8603 18.397 68.9697 18.299 69.0578 18.1669C69.1473 18.0348 69.192 17.8665 69.192 17.6619ZM72.0654 19.0682C71.7586 19.0682 71.4944 18.9957 71.2728 18.8509C71.0512 18.706 70.8807 18.5064 70.7614 18.2521C70.6421 17.9979 70.5824 17.7074 70.5824 17.3807C70.5824 17.0483 70.6435 16.755 70.7657 16.5007C70.8893 16.245 71.0611 16.0455 71.2813 15.902C71.5029 15.7571 71.7614 15.6847 72.0569 15.6847C72.287 15.6847 72.4944 15.7273 72.679 15.8125C72.8637 15.8977 73.015 16.017 73.1329 16.1705C73.2508 16.3239 73.3239 16.5028 73.3523 16.7074H72.8495C72.8111 16.5582 72.7259 16.4261 72.5938 16.3111C72.4631 16.1946 72.287 16.1364 72.0654 16.1364C71.8694 16.1364 71.6975 16.1875 71.5498 16.2898C71.4035 16.3906 71.2891 16.5334 71.2067 16.718C71.1258 16.9013 71.0853 17.1165 71.0853 17.3636C71.0853 17.6165 71.1251 17.8366 71.2046 18.0241C71.2856 18.2116 71.3992 18.3572 71.5455 18.4609C71.6932 18.5646 71.8665 18.6165 72.0654 18.6165C72.1961 18.6165 72.3147 18.5938 72.4212 18.5483C72.5278 18.5028 72.618 18.4375 72.6918 18.3523C72.7657 18.267 72.8182 18.1648 72.8495 18.0455H73.3523C73.3239 18.2386 73.2536 18.4126 73.1414 18.5675C73.0306 18.7209 72.8836 18.843 72.7003 18.9339C72.5185 19.0234 72.3069 19.0682 72.0654 19.0682ZM75.6307 15.7273V16.1534H73.9347V15.7273H75.6307ZM74.429 14.9432H74.9318V18.0625C74.9318 18.2045 74.9524 18.3111 74.9936 18.3821C75.0362 18.4517 75.0902 18.4986 75.1556 18.5227C75.2223 18.5455 75.2926 18.5568 75.3665 18.5568C75.4219 18.5568 75.4674 18.554 75.5029 18.5483C75.5384 18.5412 75.5668 18.5355 75.5881 18.5312L75.6904 18.983C75.6563 18.9957 75.6087 19.0085 75.5476 19.0213C75.4865 19.0355 75.4091 19.0426 75.3154 19.0426C75.1733 19.0426 75.0341 19.0121 74.8978 18.951C74.7628 18.8899 74.6506 18.7969 74.5611 18.6719C74.473 18.5469 74.429 18.3892 74.429 18.1989V14.9432ZM78.7667 16.4602L78.315 16.5881C78.2866 16.5128 78.2447 16.4396 78.1893 16.3686C78.1353 16.2962 78.0614 16.2365 77.9677 16.1896C77.8739 16.1428 77.7539 16.1193 77.6076 16.1193C77.4073 16.1193 77.2404 16.1655 77.1069 16.2578C76.9748 16.3487 76.9087 16.4645 76.9087 16.6051C76.9087 16.7301 76.9542 16.8288 77.0451 16.9013C77.136 16.9737 77.2781 17.0341 77.4712 17.0824L77.957 17.2017C78.2496 17.2727 78.4677 17.3814 78.6112 17.5277C78.7546 17.6726 78.8263 17.8594 78.8263 18.0881C78.8263 18.2756 78.7724 18.4432 78.6644 18.5909C78.5579 18.7386 78.4087 18.8551 78.217 18.9403C78.0252 19.0256 77.8022 19.0682 77.5479 19.0682C77.2141 19.0682 76.9379 18.9957 76.7191 18.8509C76.5004 18.706 76.3619 18.4943 76.3036 18.2159L76.7809 18.0966C76.8263 18.2727 76.9123 18.4048 77.0387 18.4929C77.1665 18.581 77.3335 18.625 77.5394 18.625C77.7738 18.625 77.9599 18.5753 78.0977 18.4759C78.2369 18.375 78.3065 18.2543 78.3065 18.1136C78.3065 18 78.2667 17.9048 78.1871 17.8281C78.1076 17.75 77.9854 17.6918 77.8207 17.6534L77.2752 17.5256C76.9755 17.4545 76.7553 17.3445 76.6147 17.1953C76.4755 17.0447 76.4059 16.8565 76.4059 16.6307C76.4059 16.446 76.4577 16.2827 76.5614 16.1406C76.6665 15.9986 76.8093 15.8871 76.9897 15.8061C77.1715 15.7251 77.3775 15.6847 77.6076 15.6847C77.9315 15.6847 78.1857 15.7557 78.3704 15.8977C78.5565 16.0398 78.6886 16.2273 78.7667 16.4602Z" fill="white"/>
</svg>
